<svg xmlns="http://www.w3.org/2000/svg" xmlns:xlink="http://www.w3.org/1999/xlink" viewBox="0 0 193.2 102.7"><defs><style>.cls-1{fill:none;}.cls-2{fill:#fff;}.cls-3{clip-path:url(#clip-path);}.cls-4{fill:url(#Degradado_sin_nombre_3);}.cls-5{clip-path:url(#clip-path-2);}.cls-6{fill:url(#Degradado_sin_nombre_4);}.cls-7{clip-path:url(#clip-path-3);}.cls-8{fill:url(#Degradado_sin_nombre_6);}.cls-9{fill:#1a73a4;}.cls-10{clip-path:url(#clip-path-4);}.cls-11{fill:url(#Degradado_sin_nombre_6-2);}</style><clipPath id="clip-path"><polygon class="cls-1" points="2.82 39.83 2.82 57.81 45.48 57.81 15.93 90.6 31.47 90.6 61.15 57.48 61.15 48.27 13.68 48.27 13.68 39.83 2.82 39.83"/></clipPath><linearGradient id="Degradado_sin_nombre_3" x1="-130.16" y1="2331.58" x2="-129.16" y2="2331.58" gradientTransform="matrix(58.33, 0, 0, -58.33, 7604.51, 136060.72)" gradientUnits="userSpaceOnUse"><stop offset="0" stop-color="#a5c7e4"/><stop offset="0.15" stop-color="#3aabda"/><stop offset="1" stop-color="#1072a4"/></linearGradient><clipPath id="clip-path-2"><polygon class="cls-1" points="17.78 18.78 17.78 18.78 17.78 44.69 61.15 44.69 61.15 18.78 17.78 18.78"/></clipPath><linearGradient id="Degradado_sin_nombre_4" x1="-130.98" y1="2330.43" x2="-129.98" y2="2330.43" gradientTransform="matrix(44.12, 0, 0, -44.12, 5796.35, 102854.35)" gradientUnits="userSpaceOnUse"><stop offset="0" stop-color="#aa325c"/><stop offset="0.05" stop-color="#aa325c"/><stop offset="0.5" stop-color="#d84174"/><stop offset="1" stop-color="#df7a86"/></linearGradient><clipPath id="clip-path-3"><path class="cls-1" d="M2.77,18.78V37.14c0,8.3.77,11.13,10.89,11.13h0V18.78Z"/></clipPath><linearGradient id="Degradado_sin_nombre_6" x1="-130.97" y1="2332.84" x2="-129.97" y2="2332.84" gradientTransform="matrix(0.01, 74.38, 74.38, -0.01, -173500.22, 9746)" gradientUnits="userSpaceOnUse"><stop offset="0" stop-color="#a5c7e4"/><stop offset="0.23" stop-color="#3aabda"/><stop offset="1" stop-color="#1072a4"/></linearGradient><clipPath id="clip-path-4"><path class="cls-1" d="M21.42,84.53,10.89,96.21s6.22,3.8,19.46,3.85h.46c13.35-.07,30.26-6.71,30.34-6.75V90.6H31.47S21.42,90.55,21.42,84.53Z"/></clipPath><linearGradient id="Degradado_sin_nombre_6-2" x1="-129.98" y1="2331.52" x2="-128.98" y2="2331.52" gradientTransform="matrix(50.26, 0, 0, -50.26, 6552.16, 117275.02)" xlink:href="#Degradado_sin_nombre_6"/></defs><title>Recurso 2</title><g id="Capa_2" data-name="Capa 2"><g id="Capa_1-2" data-name="Capa 1"><path class="cls-2" d="M64,87.1V15.83H0V87.1H0v7.41a60.32,60.32,0,0,0,30.51,8.19c18,0,33.49-7.39,33.49-7.39Z"/><g class="cls-3"><rect class="cls-4" x="2.82" y="39.83" width="58.33" height="50.78"/></g><g class="cls-5"><rect class="cls-6" x="17.4" y="6.48" width="44.12" height="50.52" transform="translate(-7.75 50.05) rotate(-60)"/></g><g class="cls-7"><rect class="cls-8" x="2.77" y="18.78" width="10.91" height="29.49"/></g><polygon class="cls-9" points="61.15 62.37 61.15 87.1 39.47 87.1 61.15 62.37"/><polygon class="cls-9" points="2.78 61.15 2.78 92.59 7.47 95.07 37.52 61.15 2.78 61.15"/><g class="cls-10"><rect class="cls-11" x="10.89" y="84.53" width="50.26" height="15.53"/></g><rect class="cls-2" x="74.84" y="15.82" width="1.32" height="79.19"/><polygon class="cls-2" points="85.78 16.16 89.38 16.16 92.3 20.91 95.23 16.16 98.83 16.16 98.83 28.43 95.44 28.43 95.44 21.39 92.31 26.19 92.23 26.19 89.11 21.42 89.12 28.43 85.78 28.43 85.78 16.16"/><path class="cls-2" d="M100.21,25.16V19h3.33v5.14c0,1,.54,1.59,1.35,1.59s1.38-.56,1.38-1.59V19h3.33v9.48h-3.33V27.14a3.5,3.5,0,0,1-2.83,1.5c-2,0-3.23-1.33-3.23-3.48"/><path class="cls-2" d="M110.86,19h3.34v1.33A3.49,3.49,0,0,1,117,18.74c2,0,3.23,1.33,3.23,3.49v6.2h-3.33V23.3c0-1-.54-1.6-1.33-1.6s-1.4.56-1.4,1.6v5.13h-3.33Z"/><path class="cls-2" d="M121.45,15.64h3.47v2.45h-3.47Zm.07,3.31h3.33v9.48h-3.33Z"/><path class="cls-2" d="M125.8,23.73v0a4.93,4.93,0,0,1,5.08-4.95,4.49,4.49,0,0,1,4.05,2.13l-2.26,1.68a2.06,2.06,0,0,0-1.77-1,2,2,0,0,0-1.86,2.1v0a2,2,0,0,0,1.89,2.15,2.27,2.27,0,0,0,1.83-1L135,26.48a4.7,4.7,0,0,1-4.22,2.18,4.89,4.89,0,0,1-5-4.93"/><path class="cls-2" d="M135.63,15.63h3.47v2.46h-3.47ZM135.7,19H139v9.48H135.7Z"/><path class="cls-2" d="M140.36,19h3.33v1.26a3.47,3.47,0,0,1,2.88-1.47c2.26,0,4.2,1.87,4.2,4.9v0c0,3.08-1.94,5-4.19,5a3.57,3.57,0,0,1-2.89-1.37v4h-3.33Zm7.14,4.75v0a1.95,1.95,0,1,0-3.88,0v0a2,2,0,1,0,3.88,0"/><path class="cls-2" d="M151.68,15.63h3.47v2.46h-3.47Zm.07,3.32h3.33v9.48h-3.33Z"/><path class="cls-2" d="M156,23.73v0a5.05,5.05,0,0,1,5.26-5,5,5,0,0,1,5.22,4.92v0a5.25,5.25,0,0,1-10.48,0m7.24,0v0a2.05,2.05,0,0,0-2-2.14,2,2,0,0,0-2,2.1v0a2.05,2.05,0,0,0,2,2.13,2,2,0,0,0,2-2.1"/><polygon class="cls-2" points="86.14 31.44 90.65 31.44 90.66 43.78 98.54 43.78 98.54 47.73 86.14 47.73 86.14 31.44"/><path class="cls-2" d="M98.77,41.5v0a7,7,0,0,1,13.92-.05v.05a7,7,0,0,1-13.92,0m9.61,0v0a2.72,2.72,0,0,0-2.67-2.84,2.63,2.63,0,0,0-2.63,2.79v.05a2.73,2.73,0,0,0,2.67,2.84,2.64,2.64,0,0,0,2.63-2.8"/><path class="cls-2" d="M113.85,35.14h4.42v1.72a4.63,4.63,0,0,1,3.74-2,3.86,3.86,0,0,1,3.63,2,5.31,5.31,0,0,1,4.22-2c2.67,0,4.3,1.68,4.3,4.61v8.26h-4.42V40.89c0-1.37-.68-2.1-1.72-2.1s-1.82.73-1.82,2.1v6.84h-4.42V40.89c0-1.37-.67-2.1-1.72-2.1s-1.79.73-1.79,2.1v6.84h-4.42Z"/><path class="cls-2" d="M135.11,44.12v0c0-2.61,2-4,4.93-4a9.53,9.53,0,0,1,3,.49V40.4c0-1.3-.82-2-2.52-2a8.87,8.87,0,0,0-3.46.7l-.91-3.12a12.66,12.66,0,0,1,5.09-1c2.26,0,3.8.54,4.8,1.54a5.27,5.27,0,0,1,1.35,4v7.24H143V46.42a4.72,4.72,0,0,1-3.7,1.59c-2.39,0-4.23-1.38-4.23-3.89m8-.95v-.58a4.54,4.54,0,0,0-1.72-.33c-1.28,0-2,.63-2,1.56v0a1.38,1.38,0,0,0,1.56,1.37,2,2,0,0,0,2.18-2.07"/><path class="cls-2" d="M148,46.15l1.65-2.68A8.22,8.22,0,0,0,154,44.91c.77,0,1.12-.23,1.12-.67v-.05c0-.49-.7-.7-2-1.07-2.49-.65-4.46-1.49-4.46-4v0c0-2.68,2.14-4.17,5-4.17a9.85,9.85,0,0,1,5.19,1.47l-1.51,2.79A8.5,8.5,0,0,0,153.63,38c-.68,0-1,.25-1,.6v.05c0,.49.72.72,2.05,1.12,2.49.69,4.47,1.55,4.47,4v0c0,2.77-2.07,4.22-5.14,4.22a10.21,10.21,0,0,1-6-1.86"/><path class="cls-2" d="M165.51,41.49v-.05c0-4.09,2.56-6.58,5.54-6.58a4.8,4.8,0,0,1,3.86,1.81V30.74h4.42v17h-4.43V46.05a4.65,4.65,0,0,1-3.84,2c-3,0-5.56-2.48-5.56-6.51m9.47-.05v0a2.58,2.58,0,1,0-5.14,0v0a2.59,2.59,0,1,0,5.14,0"/><path class="cls-2" d="M180.5,41.49v-.05a6.31,6.31,0,0,1,6.35-6.58c4.35,0,6.35,3.18,6.35,6.88,0,.28,0,.61,0,.91h-8.43a2.6,2.6,0,0,0,2.73,2.07,3.79,3.79,0,0,0,2.79-1.28l2.44,2A6.6,6.6,0,0,1,187.24,48c-4,0-6.74-2.63-6.74-6.54m8.56-1.1c-.17-1.39-1-2.28-2.19-2.28s-2,.91-2.19,2.28Z"/><polygon class="cls-2" points="85.63 63.75 93.8 54.56 85.91 54.56 85.91 50.74 100.03 50.74 100.03 54.02 91.87 63.21 100.03 63.21 100.03 67.03 85.63 67.03 85.63 63.75"/><path class="cls-2" d="M100.8,63.42v-.05c0-2.6,2-3.95,4.93-3.95a9.63,9.63,0,0,1,3,.49V59.7c0-1.31-.82-2.05-2.52-2.05a8.87,8.87,0,0,0-3.46.7l-.91-3.12a12.66,12.66,0,0,1,5.09-1c2.26,0,3.8.54,4.8,1.54a5.27,5.27,0,0,1,1.35,4V67h-4.38V65.72a4.72,4.72,0,0,1-3.7,1.59c-2.39,0-4.23-1.38-4.23-3.89m8-1v-.58a4.54,4.54,0,0,0-1.72-.33c-1.28,0-2,.63-2,1.56v0a1.38,1.38,0,0,0,1.55,1.38,2,2,0,0,0,2.19-2.07"/><path class="cls-2" d="M114.66,54.44h4.42v1.72a4.63,4.63,0,0,1,3.75-2,3.86,3.86,0,0,1,3.63,2.05,5.27,5.27,0,0,1,4.21-2.05c2.68,0,4.31,1.67,4.31,4.61V67h-4.42V60.19c0-1.38-.67-2.1-1.72-2.1s-1.81.72-1.81,2.1V67H122.6V60.19c0-1.38-.68-2.1-1.72-2.1s-1.8.72-1.8,2.1V67h-4.42Z"/><path class="cls-2" d="M136,60.79v0a7,7,0,0,1,13.92,0v0a7,7,0,0,1-13.92,0m9.61,0v0A2.74,2.74,0,0,0,143,57.9a2.63,2.63,0,0,0-2.62,2.8v0A2.72,2.72,0,0,0,143,63.58a2.63,2.63,0,0,0,2.63-2.79"/><path class="cls-2" d="M151.12,54.44h4.42V57a3.84,3.84,0,0,1,4-2.74v4.65h-.38c-2.3,0-3.6,1.33-3.6,4.23V67h-4.42Z"/><path class="cls-2" d="M159.16,63.42v-.05c0-2.61,2-3.95,4.94-4a9.8,9.8,0,0,1,3,.49v-.21c0-1.3-.81-2-2.51-2a8.74,8.74,0,0,0-3.47.7l-.91-3.12a12.71,12.71,0,0,1,5.1-1c2.26,0,3.79.53,4.79,1.53a5.25,5.25,0,0,1,1.35,4V67H167.1v-1.3a4.76,4.76,0,0,1-3.7,1.58c-2.4,0-4.24-1.37-4.24-3.88m8-1v-.58a4.55,4.55,0,0,0-1.72-.32c-1.28,0-2,.62-2,1.55v0A1.38,1.38,0,0,0,165,64.53a2,2,0,0,0,2.19-2.07"/><path class="cls-2" d="M85.71,77.37v0a4.77,4.77,0,0,1,4.94-4.77,5.35,5.35,0,0,1,3.72,1.34L92.88,75.7a3.22,3.22,0,0,0-2.21-.86,2.4,2.4,0,0,0-2.35,2.51v0a2.42,2.42,0,0,0,2.49,2.54,2.58,2.58,0,0,0,1.47-.38V78.43H90.47V76.57h4.22v4.12a6.21,6.21,0,0,1-4,1.42,4.72,4.72,0,0,1-5-4.74"/><path class="cls-2" d="M95,78.41v0A3.78,3.78,0,0,1,99,74.68a3.74,3.74,0,0,1,3.9,3.68v0a3.93,3.93,0,0,1-7.84,0m5.42,0v0A1.54,1.54,0,0,0,99,76.79a1.49,1.49,0,0,0-1.48,1.57v0A1.54,1.54,0,0,0,99,80a1.49,1.49,0,0,0,1.48-1.58"/><path class="cls-2" d="M105.77,81.06v.86h-2.49V72.36h2.49v3.42a2.58,2.58,0,0,1,2.14-1.1c1.7,0,3.15,1.4,3.15,3.67v0c0,2.31-1.45,3.71-3.13,3.71a2.63,2.63,0,0,1-2.16-1m2.84-2.67v0a1.46,1.46,0,1,0-2.9,0v0a1.46,1.46,0,1,0,2.9,0"/><path class="cls-2" d="M111.48,72.36h2.59v1.83h-2.6Zm0,2.47H114v7.09h-2.49Z"/><path class="cls-2" d="M114.5,78.41v0a3.56,3.56,0,0,1,3.57-3.71c2.45,0,3.58,1.79,3.58,3.88,0,.15,0,.34,0,.51h-4.75a1.47,1.47,0,0,0,1.54,1.16,2.12,2.12,0,0,0,1.57-.72l1.38,1.14a3.72,3.72,0,0,1-3.08,1.44,3.57,3.57,0,0,1-3.8-3.68m4.82-.61c-.09-.79-.55-1.29-1.23-1.29S117,77,116.85,77.8Z"/><path class="cls-2" d="M122.08,74.83h2.49v1.43a2.17,2.17,0,0,1,2.25-1.54v2.62h-.21c-1.3,0-2,.74-2,2.38v2.2h-2.48Z"/><path class="cls-2" d="M127.06,74.83h2.49v1a2.64,2.64,0,0,1,2.13-1.15,2.32,2.32,0,0,1,2.41,2.6v4.64H131.6V78.08c0-.77-.41-1.19-1-1.19a1.05,1.05,0,0,0-1,1.19v3.84h-2.48Z"/><path class="cls-2" d="M134.46,78.41v0a3.77,3.77,0,0,1,3.93-3.7,3.73,3.73,0,0,1,3.9,3.68v0a3.77,3.77,0,0,1-3.93,3.71,3.74,3.74,0,0,1-3.9-3.68m5.41,0v0a1.54,1.54,0,0,0-1.51-1.6,1.49,1.49,0,0,0-1.48,1.58v0a1.54,1.54,0,0,0,1.51,1.6,1.49,1.49,0,0,0,1.48-1.57"/><path class="cls-2" d="M145.36,78.41v0c0-2.3,1.44-3.7,3.12-3.7a2.7,2.7,0,0,1,2.18,1V72.35h2.49v9.57h-2.49V81a2.63,2.63,0,0,1-2.16,1.1c-1.68,0-3.14-1.4-3.14-3.67m5.34,0v0a1.46,1.46,0,1,0-2.9,0v0a1.46,1.46,0,1,0,2.9,0"/><path class="cls-2" d="M153.54,78.41v0a3.56,3.56,0,0,1,3.58-3.71c2.45,0,3.58,1.8,3.58,3.88a4.43,4.43,0,0,1,0,.51h-4.74a1.46,1.46,0,0,0,1.53,1.17,2.14,2.14,0,0,0,1.58-.72l1.37,1.14a3.69,3.69,0,0,1-3.08,1.44,3.57,3.57,0,0,1-3.8-3.68m4.82-.62a1.27,1.27,0,0,0-1.23-1.28c-.65,0-1.1.51-1.23,1.28Z"/><rect class="cls-2" x="85.94" y="84.57" width="2.49" height="9.57"/><path class="cls-2" d="M88.83,92.11v0c0-1.46,1.12-2.22,2.78-2.22a5.49,5.49,0,0,1,1.7.27V90c0-.73-.45-1.15-1.41-1.15a5,5,0,0,0-2,.39l-.52-1.75A7.12,7.12,0,0,1,92.3,87a3.64,3.64,0,0,1,2.7.86,3,3,0,0,1,.76,2.26v4.07H93.3v-.73a2.65,2.65,0,0,1-2.08.89,2.16,2.16,0,0,1-2.39-2.19m4.51-.54v-.32a2.5,2.5,0,0,0-1-.19c-.72,0-1.14.36-1.14.88v0a.78.78,0,0,0,.88.77,1.14,1.14,0,0,0,1.23-1.17"/><path class="cls-2" d="M99.2,89.58v0A4.72,4.72,0,0,1,104,84.78a4.49,4.49,0,0,1,3.89,1.92L106,88.18a2.43,2.43,0,0,0-2-1.08,2.28,2.28,0,0,0-2.19,2.43v0A2.26,2.26,0,0,0,104,92a2.49,2.49,0,0,0,2.07-1.11L108,92.25a4.6,4.6,0,0,1-4.06,2.07,4.65,4.65,0,0,1-4.73-4.74"/><path class="cls-2" d="M107.86,90.63v0a3.78,3.78,0,0,1,3.94-3.71,3.74,3.74,0,0,1,3.9,3.69v0a3.93,3.93,0,0,1-7.84,0m5.42,0v0a1.54,1.54,0,0,0-1.51-1.6,1.49,1.49,0,0,0-1.48,1.58v0a1.54,1.54,0,0,0,1.51,1.6,1.49,1.49,0,0,0,1.48-1.57"/><path class="cls-2" d="M116.11,87.05h2.49v1a2.6,2.6,0,0,1,2.11-1.13,2.17,2.17,0,0,1,2,1.16,3,3,0,0,1,2.37-1.16,2.31,2.31,0,0,1,2.43,2.6v4.65h-2.49V90.29c0-.78-.38-1.18-1-1.18s-1,.4-1,1.18v3.85h-2.49V90.29c0-.78-.38-1.18-1-1.18s-1,.4-1,1.18v3.85h-2.49Z"/><path class="cls-2" d="M128.13,91.69V87.05h2.49v3.84c0,.77.4,1.19,1,1.19s1-.42,1-1.19V87.05h2.49v7.09h-2.49v-1a2.61,2.61,0,0,1-2.12,1.13,2.32,2.32,0,0,1-2.41-2.61"/><path class="cls-2" d="M135.86,87.05h2.49v1a2.62,2.62,0,0,1,2.12-1.15,2.33,2.33,0,0,1,2.42,2.61v4.64H140.4V90.3c0-.77-.4-1.19-1-1.19a1.05,1.05,0,0,0-1.05,1.19v3.84h-2.49Z"/><path class="cls-2" d="M143.54,84.57h2.6v1.84h-2.6Zm.05,2.48h2.49v7.09h-2.49Z"/><path class="cls-2" d="M146.58,90.63v0c0-2.31,1.44-3.71,3.12-3.71a2.73,2.73,0,0,1,2.18,1V84.57h2.49v9.57h-2.49v-1a2.63,2.63,0,0,1-2.16,1.1c-1.68,0-3.14-1.4-3.14-3.66m5.34,0v0a1.46,1.46,0,1,0-2.9,0v0a1.46,1.46,0,1,0,2.9,0"/><path class="cls-2" d="M154.72,92.11v0c0-1.47,1.12-2.23,2.78-2.23a5.23,5.23,0,0,1,1.7.28V90c0-.74-.45-1.15-1.41-1.15a4.92,4.92,0,0,0-1.95.39l-.52-1.76a7.08,7.08,0,0,1,2.87-.55,3.6,3.6,0,0,1,2.7.87,2.94,2.94,0,0,1,.76,2.25v4.08h-2.46V93.4a2.65,2.65,0,0,1-2.08.89,2.15,2.15,0,0,1-2.39-2.18m4.51-.54v-.33a2.71,2.71,0,0,0-1-.18c-.72,0-1.14.35-1.14.88v0a.77.77,0,0,0,.88.77,1.13,1.13,0,0,0,1.23-1.16"/><path class="cls-2" d="M162,90.62v0c0-2.31,1.44-3.71,3.12-3.71a2.69,2.69,0,0,1,2.17,1V84.57h2.49v9.57h-2.49v-1a2.65,2.65,0,0,1-2.17,1.1c-1.67,0-3.13-1.4-3.13-3.67m5.33,0v0a1.45,1.45,0,1,0-2.89,0v0a1.45,1.45,0,1,0,2.89,0"/></g></g></svg>